<svg width="45" height="45" viewBox="0 0 45 45" fill="none" xmlns="http://www.w3.org/2000/svg">
<path d="M14.8544 33.4604C14.8544 35.1986 13.4466 36.5989 11.6991 36.5989C9.95147 36.5989 8.5437 35.1986 8.5437 33.4604C8.5437 31.7222 9.95147 30.322 11.6991 30.322C13.4466 30.322 14.8544 31.7222 14.8544 33.4604Z" fill="#2D3748"/>
<path d="M42.6213 30.1772C40.5825 15.8371 29.1261 4.44221 14.7086 2.41431C13.0096 3.28341 11.4562 4.4422 10.0969 5.74585V8.7877C24.5145 8.7877 36.2135 20.424 36.2135 34.7641H39.2718C40.5825 33.4122 41.699 31.8671 42.6213 30.1772Z" fill="#2D3748"/>
<path d="M45 20.5687C45 9.22211 35.7282 0 24.3203 0C23.5922 0 22.9126 0.0482828 22.1844 0.0965661L21.699 1.4485C31.8446 4.97318 39.9029 12.9882 43.4952 23.0794L44.8544 22.5966C44.9515 21.9689 45 21.2929 45 20.5687Z" fill="#2D3748"/>
<path d="M24.2721 36.1643C24.7575 31.0462 22.4759 26.3145 18.641 23.4175C16.6021 21.8724 14.1749 20.9067 11.4565 20.617C10.7283 20.5205 10.2429 19.9411 10.2914 19.2168C10.34 18.5891 10.874 18.1063 11.5536 18.058C11.6021 18.058 11.6507 18.058 11.6992 18.058C14.6118 18.3477 17.3303 19.3617 19.5633 20.955C24.4177 24.2866 27.3789 30.1288 26.7478 36.4057C26.6507 37.4196 26.4565 38.337 26.1653 39.3027L29.9032 40.3649C31.0197 40.0269 32.0876 39.6407 33.1556 39.1578C33.3983 37.7576 33.5925 36.2608 33.5925 34.764C33.5925 22.9829 24.8546 13.2297 13.4953 11.588C12.1361 11.3949 10.7283 11.3949 9.75744 11.6363C6.26228 12.5054 3.68945 15.6438 3.68945 19.4099C3.68945 22.9829 6.01956 26.0248 9.272 27.0387C9.90307 27.2318 10.8254 27.3284 11.3108 27.3767C14.8546 28.0044 17.573 31.0945 17.573 34.764C17.573 36.2608 17.1361 37.661 16.3594 38.8198L18.9322 40.4615C20.1944 40.7994 21.4565 40.9926 22.7672 41.0892C23.5925 39.5924 24.1264 37.9507 24.2721 36.1643Z" fill="#2D3748"/>
<path d="M24.5632 45.0001C18.0098 45.0001 11.8447 42.441 7.1845 37.8541C2.52428 33.2189 0 27.0869 0 20.5687C0 14.0505 2.57283 7.91847 7.1845 3.28327C7.5243 2.94529 8.15537 2.94529 8.49518 3.28327C8.83499 3.62126 8.83499 4.24894 8.49518 4.58692C4.22332 8.83585 1.84467 14.5333 1.84467 20.5687C1.84467 26.6041 4.22332 32.2533 8.49518 36.5505C12.767 40.7994 18.4952 43.1653 24.5632 43.1653C30.6312 43.1653 36.3108 40.7994 40.6312 36.5505C40.9711 36.2125 41.6021 36.2125 41.9419 36.5505C42.2817 36.8885 42.2817 37.5161 41.9419 37.8541C37.2817 42.441 31.1166 45.0001 24.5632 45.0001Z" fill="#2D3748"/>
</svg>
