<svg width="112" height="200" viewBox="0 0 112 200" fill="none" xmlns="http://www.w3.org/2000/svg">
<path d="M111.182 90V180C111.182 185.304 108.921 190.391 104.898 194.142C100.874 197.893 95.4174 200 89.7273 200H68.2727C62.5826 200 57.1256 197.893 53.1021 194.142C49.0786 190.391 46.8182 185.304 46.8182 180V90C46.83 87.3539 47.4049 84.7362 48.5098 82.2987C49.6146 79.8612 51.2273 77.6523 53.2545 75.8C69.3454 58.9 68.2727 20 68.2727 20H57.5454V0H100.455V20H89.7273C89.7273 20 88.6545 58.9 104.745 75.8C106.773 77.6523 108.385 79.8612 109.49 82.2987C110.595 84.7362 111.17 87.3539 111.182 90Z" fill="#3A3D40"/>
<path d="M33 145V190C33 192.652 31.8698 195.196 29.858 197.071C27.8463 198.946 25.1178 200 22.2727 200H11.5454C8.7004 200 5.97188 198.946 3.96012 197.071C1.94837 195.196 0.818176 192.652 0.818176 190V145C0.824068 143.677 1.11155 142.368 1.66397 141.149C2.21639 139.931 3.02276 138.826 4.03636 137.9C12.0818 129.45 11.5454 110 11.5454 110H6.18181V100H27.6363V110H22.2727C22.2727 110 21.7363 129.45 29.7818 137.9C30.7954 138.826 31.6018 139.931 32.1542 141.149C32.7066 142.368 32.9941 143.677 33 145Z" fill="#3A3D40"/>
</svg>
