<svg width="120" height="148" viewBox="0 0 120 148" fill="none" xmlns="http://www.w3.org/2000/svg">
<path d="M91.7438 59.1258C84.348 51.5342 69.5563 51.5342 54.7647 51.5342C39.973 51.5342 25.1813 51.5342 17.7855 59.1258C6.68965 70.5133 -4.40201 99.6258 2.99382 122.401C10.3897 145.176 42.8147 147.518 54.7647 147.518C66.7147 147.518 99.1396 145.176 106.535 122.401C113.931 99.63 102.84 70.5133 91.7438 59.1258Z" fill="#3A3D40"/>
<path d="M86.348 58.3425C80.0313 51.8591 67.398 51.8591 54.7646 51.8591C42.1313 51.8591 29.498 51.8591 23.1813 58.3425C13.7063 68.0675 4.23129 92.9341 10.548 112.38C16.8646 131.83 44.5563 133.83 54.7646 133.83C64.973 133.83 92.6646 131.83 98.9771 112.38C105.294 92.93 95.823 68.0675 86.348 58.3425Z" fill="#B6B6B6"/>
<path d="M94.1522 52.5633C92.5564 45.83 84.723 39.355 54.8314 39.355H54.698C24.8022 39.355 16.9689 45.83 15.3772 52.5633C12.323 65.4508 24.8064 70.3883 54.698 70.3883H54.8314C84.723 70.3841 97.2064 65.4508 94.1522 52.5633Z" fill="#BEC5C9"/>
<path d="M86.5229 49.7716C87.7438 52.7716 78.8896 56.6799 54.6896 56.6799C30.4896 56.6799 21.6146 52.7591 22.8563 49.7716C24.2021 46.5257 38.9771 43.3132 54.6896 43.3132C70.4021 43.3132 85.2063 46.5257 86.5229 49.7716Z" fill="#B6B6B6"/>
<path d="M25.5688 53.0592C29.798 55.0301 39.0105 56.6801 54.6938 56.6801C70.3897 56.6801 79.5938 55.0342 83.8188 53.0592C80.7605 50.4134 72.3188 47.7676 54.6938 47.7676C37.0688 47.7717 28.6272 50.4134 25.5688 53.0592Z" fill="#77B255"/>
<path d="M83.9313 57.5883C83.2813 55.8216 82.1438 55.9508 80.5396 56.4383C73.1271 58.6758 62.3729 59.1091 54.6604 59.1549C46.9479 59.1091 35.1771 58.4799 28.7813 56.4383C27.1813 55.9299 25.8604 55.7216 25.1896 57.5883C24.5396 59.4049 26.4646 61.1383 28.0938 61.5341C37.9521 63.9341 46.0646 64.6424 54.6604 64.6966C63.2521 64.6424 70.3479 64.0341 80.2063 61.6341C81.8396 61.2341 84.6854 59.6508 83.9313 57.5883Z" fill="#E2E3E2"/>
<path d="M75.1563 55.3174L97.3021 22.2758L119.369 6.67994C119.369 6.67994 119.956 5.44244 116.119 2.4716C112.281 -0.49923 110.548 0.73827 110.548 0.73827L91.598 15.8091L64.548 56.2091C68.0939 56.0435 71.6325 55.746 75.1563 55.3174Z" fill="#5C5C5C"/>
<path d="M75.1563 55.3174L97.3022 22.2757L119.369 6.67992L119.09 6.30908L94.9563 19.6757L70.7897 55.8174C72.5855 55.6757 73.4355 55.5674 75.1563 55.3174Z" fill="#3A3D40"/>
<path d="M94.8355 25.8465C98.6739 25.8465 101.785 22.7349 101.785 18.8965C101.785 15.0582 98.6739 11.9465 94.8355 11.9465C90.9971 11.9465 87.8855 15.0582 87.8855 18.8965C87.8855 22.7349 90.9971 25.8465 94.8355 25.8465Z" fill="#DBDDDC"/>
<path d="M88.9855 17.6216C88.9855 16.227 89.5395 14.8895 90.5256 13.9034C91.5117 12.9173 92.8492 12.3633 94.2438 12.3633C95.6384 12.3633 96.9759 12.9173 97.962 13.9034C98.9481 14.8895 99.5021 16.227 99.5021 17.6216C99.5021 19.0162 98.9481 20.3537 97.962 21.3398C96.9759 22.3259 95.6384 22.8799 94.2438 22.8799C92.8492 22.8799 91.5117 22.3259 90.5256 21.3398C89.5395 20.3537 88.9855 19.0162 88.9855 17.6216Z" fill="#F3F4F3"/>
<path d="M27.5105 43.5634C34.1938 40.9009 46.4438 40.2218 50.7147 40.4093C54.9855 40.5968 53.0938 43.5634 50.6522 43.5634C43.598 43.5634 34.873 45.2343 28.8688 46.7801C25.323 47.6926 24.1063 44.9176 27.5105 43.5634Z" fill="#E2E3E2"/>
</svg>
