<svg width="91" height="97" viewBox="0 0 91 97" fill="none" xmlns="http://www.w3.org/2000/svg">
<path d="M9.49447 71.6229C9.82519 72.1317 10.5058 72.2761 11.0146 71.9453C11.5234 71.6146 11.6678 70.934 11.337 70.4252L9.49447 71.6229ZM6.71288 24.4682L7.67715 24.9951L6.71288 24.4682ZM75.9576 14.8035L75.1951 15.5947L75.9576 14.8035ZM80.32 74.9144L90.404 67.2141L78.6933 62.3312L80.32 74.9144ZM11.337 70.4252C4.64466 60.1293 -1.34826 41.514 7.67715 24.9951L5.74862 23.9414C-3.82954 41.472 2.58837 60.9981 9.49447 71.6229L11.337 70.4252ZM75.1951 15.5947C80.457 20.6658 84.5339 27.188 86.2541 35.3758C87.9752 43.5676 87.3527 53.5017 83.0922 65.4143L85.1614 66.1544C89.5305 53.9382 90.225 43.5875 88.4048 34.9239C86.5838 26.2563 82.2613 19.3525 76.7201 14.0123L75.1951 15.5947ZM7.67715 24.9951C13.9906 13.4396 26.0683 6.47023 39.0318 4.71477C51.9965 2.95915 65.6966 6.44062 75.1951 15.5947L76.7201 14.0123C66.657 4.31416 52.2476 0.707492 38.7369 2.53704C25.2249 4.36676 12.461 11.6558 5.74862 23.9414L7.67715 24.9951Z" fill="#3A3D40"/>
<path d="M31.25 64.8963C38.221 60.8605 51.732 60.543 59.1557 62.9657C59.3931 63.0431 59.309 63.3593 59.0598 63.3444C35.3325 61.9306 26.1804 70.8055 24.2119 76.2086C24.1333 76.4244 23.7931 76.4146 23.7466 76.1897C23.2689 73.8803 23.1701 69.5742 31.25 64.8963Z" fill="#3A3D40"/>
<path d="M27.2594 77.7263C31.8183 64.8179 51.6612 67.2501 62.8845 70.6062C63.1365 70.6816 63.0525 71.0381 62.7906 71.0138C41.7568 69.0644 31.208 74.2836 27.704 77.9697C27.5327 78.15 27.1766 77.9608 27.2594 77.7263Z" fill="#3A3D40"/>
<path d="M69.1939 24.0337C85.5778 39.2745 74.6985 54.8261 66.7789 61.1013C66.6147 61.2314 66.3922 61.0563 66.4454 60.8537C75.5058 26.4168 53.6964 22.4309 38.547 25.4931C22.1852 30.947 20.882 42.0626 23.2499 50.1616C24.4695 54.3329 26.8478 58.3092 26.5181 62.6427C26.269 65.9184 25.1359 68.2421 24.1255 69.53C23.9809 69.7144 23.6942 69.5425 23.7365 69.3121C24.4433 65.4635 21.6243 58.3964 18.8771 52.8856C17.1945 49.5104 15.6591 45.969 15.6224 42.1979C15.508 30.4379 22.0973 23.3678 25.899 21.1149C33.3581 15.6017 52.4597 8.46697 69.1939 24.0337Z" fill="#3A3D40"/>
<path d="M11.7292 93.0776V81.5313C11.7292 80.4299 12.5453 79.5025 13.6148 79.2394C17.4478 78.2965 22.4206 76.0799 25.8565 74.2968C28.3712 72.9918 31.3684 72.3997 34.1598 72.8849C45.7647 74.9019 49.9564 73.0021 56.4834 74.7427C58.9064 75.3888 59.5135 76.169 59.1745 76.9302C57.7314 80.1705 52.5669 79.089 49.0638 79.6461C46.1618 80.1076 42.7117 81.5295 45.4624 82.5631C46.5289 82.9639 48.0496 83.435 50.1595 83.9854C61.348 86.9042 90.5356 79.6073 87.6168 83.9854C85.2818 87.4879 75.2932 90.6337 70.5908 91.7688C68.1585 92.0931 61.5426 93.0336 54.5376 94.2011C47.5326 95.3686 28.2688 93.7146 19.5125 92.7417L14.9096 95.0432C13.4484 95.7738 11.7292 94.7112 11.7292 93.0776Z" fill="#F1CB8F"/>
<path d="M38.2904 47.998H36.4298V40.8258L34.2086 41.5147V40.0017L38.0908 38.611H38.2904V47.998ZM47.4521 41.1155C47.4521 41.5705 47.3384 41.9739 47.1109 42.3259C46.8834 42.6779 46.5701 42.959 46.1709 43.1693C46.6259 43.3882 46.9864 43.6908 47.2525 44.0771C47.5187 44.4591 47.6517 44.9098 47.6517 45.4292C47.6517 46.2619 47.3684 46.9207 46.8019 47.4057C46.2353 47.8864 45.4648 48.1268 44.4905 48.1268C43.5162 48.1268 42.7436 47.8843 42.1727 47.3993C41.6019 46.9143 41.3164 46.2576 41.3164 45.4292C41.3164 44.9098 41.4495 44.457 41.7156 44.0707C41.9817 43.6844 42.3401 43.3839 42.7908 43.1693C42.3916 42.959 42.0783 42.6779 41.8508 42.3259C41.6276 41.9739 41.516 41.5705 41.516 41.1155C41.516 40.3172 41.7821 39.6819 42.3144 39.2098C42.8466 38.7333 43.5698 38.4951 44.4841 38.4951C45.394 38.4951 46.1151 38.7312 46.6473 39.2033C47.1839 39.6712 47.4521 40.3086 47.4521 41.1155ZM45.7846 45.294C45.7846 44.8862 45.6666 44.56 45.4305 44.3153C45.1944 44.0707 44.8768 43.9484 44.4776 43.9484C44.0828 43.9484 43.7673 44.0707 43.5312 44.3153C43.2951 44.5557 43.1771 44.8819 43.1771 45.294C43.1771 45.6931 43.293 46.0151 43.5248 46.2597C43.7565 46.5044 44.0785 46.6267 44.4905 46.6267C44.894 46.6267 45.2095 46.5087 45.4369 46.2726C45.6687 46.0365 45.7846 45.7103 45.7846 45.294ZM45.5915 41.2056C45.5915 40.8408 45.4949 40.5489 45.3017 40.33C45.1086 40.1068 44.836 39.9952 44.4841 39.9952C44.1364 39.9952 43.866 40.1026 43.6729 40.3172C43.4797 40.5318 43.3831 40.8279 43.3831 41.2056C43.3831 41.5791 43.4797 41.8795 43.6729 42.107C43.866 42.3345 44.1386 42.4482 44.4905 42.4482C44.8425 42.4482 45.1129 42.3345 45.3017 42.107C45.4949 41.8795 45.5915 41.5791 45.5915 41.2056ZM55.2232 44.1222C55.2232 45.4184 54.9549 46.4099 54.4184 47.0967C53.8818 47.7834 53.0964 48.1268 52.0619 48.1268C51.0404 48.1268 50.2592 47.7899 49.7184 47.116C49.1776 46.4421 48.9007 45.4764 48.8879 44.2188V42.4933C48.8879 41.1842 49.1583 40.1905 49.6991 39.5124C50.2442 38.8342 51.0275 38.4951 52.0491 38.4951C53.0706 38.4951 53.8518 38.8321 54.3926 39.5059C54.9334 40.1755 55.2103 41.1391 55.2232 42.3967V44.1222ZM53.3625 42.2293C53.3625 41.4524 53.2552 40.888 53.0406 40.5361C52.8303 40.1798 52.4998 40.0017 52.0491 40.0017C51.6113 40.0017 51.2872 40.1712 51.0769 40.5103C50.8709 40.8451 50.7614 41.3709 50.7485 42.0877V44.3668C50.7485 45.1309 50.8515 45.6996 51.0576 46.073C51.2679 46.4421 51.6027 46.6267 52.0619 46.6267C52.5169 46.6267 52.8453 46.4486 53.047 46.0923C53.2487 45.7361 53.3539 45.191 53.3625 44.457V42.2293ZM33.8931 55.7807C33.8931 55.094 34.097 54.5424 34.5047 54.1261C34.9168 53.7054 35.4554 53.4951 36.1207 53.4951C36.786 53.4951 37.3247 53.7033 37.7367 54.1196C38.1488 54.536 38.3548 55.1004 38.3548 55.8129V56.2765C38.3548 56.9589 38.1531 57.5105 37.7496 57.9311C37.3462 58.3475 36.8075 58.5556 36.1336 58.5556C35.4554 58.5556 34.9125 58.3453 34.5047 57.9247C34.097 57.504 33.8931 56.9439 33.8931 56.2443V55.7807ZM35.0198 56.2765C35.0198 56.6971 35.1185 57.0255 35.3159 57.2615C35.5177 57.4976 35.7902 57.6156 36.1336 57.6156C36.4684 57.6156 36.7324 57.4997 36.9255 57.268C37.123 57.0362 37.2238 56.7121 37.2281 56.2958V55.7807C37.2281 55.3644 37.1273 55.0382 36.9255 54.8021C36.7281 54.566 36.4598 54.448 36.1207 54.448C35.7859 54.448 35.5177 54.566 35.3159 54.8021C35.1185 55.0339 35.0198 55.3687 35.0198 55.8065V56.2765Z" fill="#3A3D40"/>
</svg>
