<svg width="105" height="106" viewBox="0 0 105 106" fill="none" xmlns="http://www.w3.org/2000/svg">
<path d="M37.1959 59.1766C26.1743 55.7912 17.449 58.1328 17.449 62.5367L34.3532 83.6671L53.6724 89.7043L68.1618 83.6671L82.6511 70.3852L85.066 54.6885C71.4739 45.7832 60.6714 50.9474 52.0936 57.1869C47.8129 60.3007 42.256 60.7308 37.1959 59.1766Z" fill="#77B255"/>
<path d="M79.5346 41.4989C69.5431 42.0996 54.3511 34.9175 47.475 28.0926C47.2598 27.879 47.5244 27.5817 47.7868 27.7336C73.372 42.5389 88.4777 37.7542 93.6526 32.8469C93.8549 32.6551 94.2184 32.8504 94.147 33.1199C93.3988 35.9444 91.1326 40.8015 79.5346 41.4989Z" fill="#3A3D40"/>
<path d="M91.1235 29.4603C78.8734 41.3036 58.154 27.5061 47.5743 17.5302C47.3419 17.3111 47.6287 16.9707 47.8997 17.1397C70.2196 31.0573 84.8551 31.1095 90.7748 28.9549C91.0585 28.8516 91.3406 29.2505 91.1235 29.4603Z" fill="#3A3D40"/>
<path d="M14.7096 65.7272C5.00583 39.6935 25.7496 28.4931 38.0241 25.9432C38.2731 25.8915 38.4191 26.2028 38.251 26.3937C9.02673 59.5681 31.009 76.1249 49.5219 81.155C70.8264 84.2223 78.4215 72.4676 80.2453 62.1227C81.1616 56.9259 80.7625 51.3291 83.4408 46.7823C85.5649 43.1765 88.1743 41.1834 90.0397 40.3098C90.2973 40.1891 90.515 40.5311 90.3427 40.7576C87.3851 44.6468 86.5876 54.1766 86.5806 61.8598C86.5763 66.439 86.3105 71.1134 84.3145 75.2347C77.9118 88.4546 66.6087 92.6613 61.1186 93.0474C49.7767 95.0149 24.6163 92.3054 14.7096 65.7272Z" fill="#3A3D40"/>
</svg>
