<svg width="154" height="150" viewBox="0 0 154 150" fill="none" xmlns="http://www.w3.org/2000/svg">
<path d="M106.113 113.71H144.145C140.951 71.5646 122.806 45.3871 99.5319 29.9032L110.129 6.7742C110.449 6.04028 110.582 5.23833 110.516 4.44027C110.45 3.6422 110.187 2.87298 109.751 2.20157C109.315 1.53016 108.718 0.977557 108.016 0.593317C107.313 0.209076 106.526 0.0052098 105.725 0H39.3867C38.5859 0.0052098 37.799 0.209076 37.0964 0.593317C36.3938 0.977557 35.7976 1.53016 35.3612 2.20157C34.9247 2.87298 34.6618 3.6422 34.5959 4.44027C34.5299 5.23833 34.6631 6.04028 34.9834 6.7742L40.7899 19.3549H89.7577L85.4028 29.0323H76.4512C79.1851 36.3835 81.1946 43.9841 82.4512 51.7258C83.2652 56.5281 83.7823 61.376 83.9996 66.242L76.3544 71.613C76.3752 65.3542 75.8571 59.1054 74.806 52.9355C73.469 44.7241 71.1626 36.7003 67.9351 29.0323H63.0964C58.6309 34.6745 54.6184 40.6609 51.0964 46.9355C48.2565 52.3179 45.8458 57.9159 43.8867 63.6775L37.2576 59.2742C39.1926 53.7056 41.5712 48.3012 44.3705 43.1129C47.1991 38.2478 50.3008 33.5467 53.6609 29.0323H45.1931L45.5802 29.8549C19.935 46.9355 0.435034 76.9355 0.435034 127.016C0.369647 128.069 0.513507 129.124 0.858302 130.121C1.2031 131.118 1.74199 132.036 2.44385 132.824C3.14571 133.611 3.99663 134.252 4.94745 134.708C5.89826 135.165 6.93013 135.428 7.98343 135.484H46.6931C45.031 133.754 43.8833 131.595 43.3787 129.25C42.8742 126.905 43.0326 124.465 43.8363 122.205C44.64 119.944 46.0572 117.952 47.9292 116.452C49.8011 114.952 52.0539 114.002 54.4351 113.71C53.2762 111.744 52.6585 109.507 52.6447 107.226C52.6447 103.761 54.0212 100.438 56.4713 97.9879C58.9213 95.5378 62.2443 94.1614 65.7093 94.1614H94.7415C98.2065 94.1614 101.529 95.5378 103.98 97.9879C106.43 100.438 107.806 103.761 107.806 107.226C107.831 109.5 107.246 111.739 106.113 113.71Z" fill="#3A3D40"/>
<path d="M90.1932 125.806C90.1932 124.523 89.6834 123.292 88.7759 122.385C87.8685 121.478 86.6378 120.968 85.3544 120.968H56.3222C55.0389 120.968 53.8081 121.478 52.9007 122.385C51.9932 123.292 51.4835 124.523 51.4835 125.806C51.4835 127.09 51.9932 128.321 52.9007 129.228C53.8081 130.135 55.0389 130.645 56.3222 130.645H85.3544C86.6378 130.645 87.8685 130.135 88.7759 129.228C89.6834 128.321 90.1932 127.09 90.1932 125.806Z" fill="#3A3D40"/>
<path d="M94.7416 101.613H65.7093C64.426 101.613 63.1952 102.123 62.2878 103.031C61.3804 103.938 60.8706 105.169 60.8706 106.452C60.8706 107.735 61.3804 108.966 62.2878 109.873C63.1952 110.781 64.426 111.291 65.7093 111.291H94.7416C96.0249 111.291 97.2556 110.781 98.163 109.873C99.0705 108.966 99.5803 107.735 99.5803 106.452C99.5803 105.169 99.0705 103.938 98.163 103.031C97.2556 102.123 96.0249 101.613 94.7416 101.613Z" fill="#3A3D40"/>
<path d="M92.1287 140.323H63.0964C61.8131 140.323 60.5824 140.832 59.6749 141.74C58.7675 142.647 58.2577 143.878 58.2577 145.161C58.2577 146.445 58.7675 147.675 59.6749 148.583C60.5824 149.49 61.8131 150 63.0964 150H92.1287C93.412 150 94.6427 149.49 95.5502 148.583C96.4576 147.675 96.9674 146.445 96.9674 145.161C96.9674 143.878 96.4576 142.647 95.5502 141.74C94.6427 140.832 93.412 140.323 92.1287 140.323Z" fill="#3A3D40"/>
<path d="M143.903 140.323H110.032C108.749 140.323 107.518 140.832 106.61 141.74C105.703 142.647 105.193 143.878 105.193 145.161C105.193 146.445 105.703 147.675 106.61 148.583C107.518 149.49 108.749 150 110.032 150H143.903C145.186 150 146.417 149.49 147.324 148.583C148.232 147.675 148.742 146.445 148.742 145.161C148.742 143.878 148.232 142.647 147.324 141.74C146.417 140.832 145.186 140.323 143.903 140.323Z" fill="#3A3D40"/>
<path d="M148.742 120.968H114.871C113.587 120.968 112.357 121.478 111.449 122.385C110.542 123.292 110.032 124.523 110.032 125.806C110.032 127.09 110.542 128.321 111.449 129.228C112.357 130.135 113.587 130.645 114.871 130.645H148.742C150.025 130.645 151.256 130.135 152.163 129.228C153.071 128.321 153.58 127.09 153.58 125.806C153.58 124.523 153.071 123.292 152.163 122.385C151.256 121.478 150.025 120.968 148.742 120.968Z" fill="#3A3D40"/>
</svg>
