<svg width="79" height="122" viewBox="0 0 79 122" fill="none" xmlns="http://www.w3.org/2000/svg">
<path fill-rule="evenodd" clip-rule="evenodd" d="M3.86076 0.567613C2.88472 -0.2751 1.41033 -0.167015 0.567613 0.809027C-0.275099 1.78507 -0.167015 3.25946 0.809027 4.10217L19.1653 19.951L19.5749 22.6134C19.9014 24.7357 21.1362 26.6105 22.9571 27.7486L35.4709 35.5697C38.2631 37.3148 41.5341 38.1362 44.8196 37.9172L46.9205 37.7771C48.2542 37.6882 49.5104 37.1182 50.4556 36.173C52.7315 33.8971 52.8147 30.2336 50.6445 27.8567L44.9957 21.6699C42.8256 19.2931 39.8117 17.8596 36.5984 17.676L22.7601 16.8853L3.86076 0.567613Z" fill="#3E3102"/>
<path d="M17.0148 105.893L39.1511 112.042C60.3036 115.977 71.5358 96.0544 74.2003 85.6011C71.7407 83.9613 64.9769 81.0508 57.5981 82.5266C50.2193 84.0023 47.9647 79.862 47.7597 77.6074L47.1448 37.7802C50.6934 37.1653 53.2938 35.7944 48.3746 25.341C42.493 12.8425 37.827 15.68 31.1575 17.3474C23.7787 19.192 24.8035 20.2169 25.0085 22.2665C25.9923 27.1857 36.0766 33.3347 40.9958 35.7943L39.4205 76.7517C39.2778 80.4631 35.8998 83.18 32.2052 82.8C16.4445 81.179 7.74723 84.2353 5.94662 86.216L17.0148 105.893Z" fill="#77B255"/>
<path d="M58.7387 58.4153C49.8674 63.5513 32.6168 63.9232 23.2752 60.7929C23.0102 60.7041 23.11 60.3479 23.389 60.365C53.7073 62.2243 65.2793 50.8262 67.6787 43.9943C67.7639 43.7518 68.1417 43.7606 68.1961 44.0117C68.8211 46.8977 69.1038 52.4145 58.7387 58.4153Z" fill="#3A3D40"/>
<path d="M63.8451 42.0189C58.1654 58.6473 32.6521 55.4134 18.4678 51.1123C18.1861 51.0269 18.2882 50.6278 18.5813 50.6555C45.6347 53.2205 59.0484 46.4302 63.3544 41.7476C63.5427 41.5427 63.9351 41.7555 63.8451 42.0189Z" fill="#3A3D40"/>
<path d="M10.7766 110.067C-9.98376 90.7547 3.88632 71.0479 13.9028 63.1541C14.0869 63.009 14.3348 63.2066 14.275 63.4332C2.75943 107.047 30.3524 112.095 49.5152 108.222C70.8165 101.122 71.9258 86.4295 68.5701 76.1309C67.0631 71.5062 64.51 67.0732 64.6687 62.2117C64.8234 57.4684 66.4399 54.1664 67.8336 52.446C67.9987 52.2422 68.3162 52.4352 68.2635 52.6921C67.2382 57.6937 71.1315 67.2057 74.7488 74.3332C76.659 78.0971 78.3474 82.0633 78.476 86.2822C78.9441 101.642 70.3962 110.856 65.5026 113.756C56.0741 120.725 31.9291 129.743 10.7766 110.067Z" fill="#3A3D40"/>
<path d="M37.4199 98.3839H30.2285V96.9571L33.6225 93.3398C34.0884 92.8306 34.4319 92.3862 34.6529 92.0067C34.8787 91.6272 34.9916 91.2669 34.9916 90.9258C34.9916 90.4598 34.8739 90.0947 34.6385 89.8305C34.4031 89.5615 34.0668 89.427 33.6297 89.427C33.1589 89.427 32.7866 89.5903 32.5128 89.917C32.2437 90.2389 32.1092 90.664 32.1092 91.1924H30.0195C30.0195 90.5535 30.1709 89.9698 30.4735 89.4414C30.7809 88.913 31.2133 88.4999 31.7706 88.202C32.3278 87.8994 32.9595 87.748 33.6657 87.748C34.7466 87.748 35.5848 88.0075 36.1805 88.5263C36.781 89.0451 37.0813 89.7777 37.0813 90.7241C37.0813 91.2429 36.9467 91.7713 36.6777 92.3093C36.4087 92.8474 35.9475 93.4743 35.2942 94.1901L32.9091 96.7049H37.4199V98.3839Z" fill="white"/>
<path d="M39.4448 99.2846H37.8955L41.7578 87.8922H43.3071L39.4448 99.2846Z" fill="white"/>
<path d="M46.3408 92.2157H47.4505C47.9789 92.2157 48.3704 92.0836 48.625 91.8193C48.8796 91.5551 49.0069 91.2044 49.0069 90.7673C49.0069 90.3446 48.8796 90.0155 48.625 89.7801C48.3752 89.5447 48.0293 89.427 47.5874 89.427C47.1886 89.427 46.8548 89.5375 46.5858 89.7585C46.3167 89.9747 46.1822 90.2581 46.1822 90.6088H44.0997C44.0997 90.0611 44.2463 89.5711 44.5393 89.1388C44.8371 88.7016 45.2503 88.3605 45.7787 88.1155C46.3119 87.8705 46.898 87.748 47.5369 87.748C48.6466 87.748 49.5161 88.0147 50.1454 88.5479C50.7748 89.0763 51.0894 89.8065 51.0894 90.7385C51.0894 91.2189 50.9429 91.6608 50.6499 92.0643C50.3568 92.4679 49.9725 92.7777 49.4969 92.9939C50.0878 93.2053 50.5274 93.5223 50.8156 93.9451C51.1086 94.3678 51.2551 94.8674 51.2551 95.4439C51.2551 96.3758 50.9141 97.1228 50.2319 97.6849C49.5546 98.247 48.6562 98.528 47.5369 98.528C46.4897 98.528 45.6322 98.2518 44.9644 97.6993C44.3015 97.1469 43.97 96.4167 43.97 95.5087H46.0525C46.0525 95.9027 46.199 96.2245 46.4921 96.4743C46.7899 96.7241 47.155 96.849 47.5874 96.849C48.0822 96.849 48.4689 96.7193 48.7475 96.4599C49.0309 96.1957 49.1727 95.8474 49.1727 95.4151C49.1727 94.3678 48.5962 93.8442 47.4433 93.8442H46.3408V92.2157Z" fill="white"/>
</svg>
