<svg width="90" height="123" viewBox="0 0 90 123" fill="none" xmlns="http://www.w3.org/2000/svg">
<path d="M29 7.5L21 25C23.5 26.3333 32.3286 27.7 41.9286 30.5C48.7319 32.4843 55.4347 36.9295 60.0084 40.5967C62.4189 42.5295 66.0634 42.2113 67.8592 39.6971L80.5988 21.8616C81.9123 20.0228 81.4429 17.4619 79.5627 16.2085L74.5299 12.8533C73.4798 12.1532 73.3326 10.6674 74.2251 9.77494L77.0533 6.94674C77.8696 6.13038 79.1769 6.08017 80.0534 6.83152L84.3027 10.4738C85.0224 11.0906 86.0499 11.1945 86.8785 10.7342C88.3307 9.92741 88.4502 7.88418 87.1021 6.91351L79.4427 1.39874C78.2692 0.553827 76.6997 0.507876 75.4788 1.28269L56.6849 13.2096C53.4291 15.2758 49.3787 15.6515 45.7983 14.2193L29 7.5Z" fill="#E8BB7F"/>
<rect x="77.7537" y="5.25049" width="4.96849" height="84.0883" rx="2.48424" transform="rotate(26 77.7537 5.25049)" fill="#4F5460"/>
<path d="M81.2758 18.1962C79.71 17.6743 78.5414 17.5212 77.6869 17.6322C72.5186 18.3033 78.7428 29.004 83.5907 27.0912C83.872 26.9801 84.1025 26.8407 84.2759 26.6962C86.2759 24.8629 88.4758 20.5962 81.2758 18.1962Z" fill="#F1C077"/>
<path d="M79.9179 16.6761C77.3196 15.8782 75.6128 15.8429 74.5447 16.2771C69.5852 18.293 76.0476 27.2424 81.3954 26.9942C82.3928 26.948 83.1513 26.6292 83.5992 26.2854C86.0532 24.2128 88.7527 19.3893 79.9179 16.6761Z" fill="#EECFA2"/>
<path d="M78.7721 24.4797C83.392 27.5061 84.1953 30.9092 82.7022 33.1886C81.209 35.4679 77.9848 35.7603 73.3649 32.7339C68.7451 29.7075 66.2104 25.4064 67.7036 23.1271C69.1968 20.8477 74.1523 21.4533 78.7721 24.4797Z" fill="#F1C077"/>
<path d="M75.0578 31.6855C78.9598 34.2416 79.5804 37.2044 78.2536 39.2298C76.9268 41.2551 74.1551 41.576 70.2532 39.0199C66.3512 36.4638 64.2636 32.7497 65.5903 30.7244C66.9171 28.699 71.1559 29.1293 75.0578 31.6855Z" fill="#F1C077"/>
<path d="M70.5007 37.3422C73.7962 39.1863 74.3689 41.7151 73.3033 43.6193C72.2378 45.5236 69.9375 46.0821 66.6419 44.238C63.3464 42.3939 61.5386 39.3552 62.6042 37.451C63.6698 35.5468 67.2051 35.4981 70.5007 37.3422Z" fill="#F1C077"/>
<path d="M77.7721 23.4797C82.392 26.5061 83.1953 29.9092 81.7022 32.1886C80.209 34.4679 76.9848 34.7603 72.3649 31.7339C67.7451 28.7075 65.2104 24.4064 66.7036 22.1271C68.1968 19.8477 73.1523 20.4533 77.7721 23.4797Z" fill="#EECFA2"/>
<path d="M73.0407 30.0191C77.6396 33.0317 78.5557 36.2417 77.2011 38.3095C75.8466 40.3773 72.7343 40.5198 68.1354 37.5072C63.5365 34.4945 60.9064 30.376 62.261 28.3082C63.6156 26.2404 68.4418 27.0064 73.0407 30.0191Z" fill="#EECFA2"/>
<path d="M68.4821 35.7493C72.4682 37.9799 73.2546 40.8711 72.0719 42.9848C70.8891 45.0984 68.1851 45.6341 64.199 43.4035C60.2128 41.173 57.9403 37.6513 59.123 35.5376C60.3058 33.424 64.496 33.5188 68.4821 35.7493Z" fill="#EECFA2"/>
<ellipse cx="42.6807" cy="82.3712" rx="6" ry="7.5" transform="rotate(26 42.6807 82.3712)" fill="#4F5460"/>
<path d="M31.4561 84.2166C22.0232 81.1152 14.4511 83.059 14.4511 86.7925L28.4511 104.293L44.4511 109.293L56.4511 104.293L68.4511 93.2925L70.4511 80.2926C58.9002 72.7248 49.782 77.4257 42.5908 82.7683C39.406 85.1344 35.225 85.4557 31.4561 84.2166Z" fill="#77B255"/>
<path d="M65.8701 69.3691C57.5498 69.8693 44.8748 63.8528 39.2252 58.1729C39.065 58.0117 39.2674 57.7892 39.4639 57.9033C60.8247 70.3041 73.3903 66.2362 77.6243 62.1446C77.7745 61.9993 78.0459 62.1434 77.994 62.3458C77.3966 64.6714 75.5914 68.7846 65.8701 69.3691Z" fill="#3A3D40"/>
<path d="M75.5576 59.3115C65.3689 69.3287 48.0018 57.6798 39.2588 49.384C39.0851 49.2193 39.3049 48.9664 39.5078 49.0934C58.238 60.8173 70.4631 60.7699 75.2997 58.9354C75.5113 58.8552 75.7189 59.1529 75.5576 59.3115Z" fill="#3A3D40"/>
<path d="M12.1824 89.4349C4.12989 67.8311 21.3941 58.5611 31.5519 56.4735C31.7386 56.4352 31.8468 56.6691 31.7207 56.8121C7.45517 84.3183 25.6727 98.0438 41.0138 102.212C59.0853 104.814 65.2462 94.5385 66.5601 85.8295C67.1502 81.9186 66.9099 77.7658 68.797 74.2898C70.6381 70.8983 73.0165 69.0872 74.6566 68.3446C74.8509 68.2566 75.0113 68.5126 74.8794 68.6802C72.3113 71.9421 71.6748 80.2753 71.7066 86.7746C71.7234 90.2067 71.5052 93.705 70.0611 96.8186C64.8038 108.154 55.2321 111.737 50.6181 112.061C41.2248 113.691 20.3871 111.447 12.1824 89.4349Z" fill="#3A3D40"/>
</svg>
