<svg width="118" height="135" viewBox="0 0 118 135" fill="none" xmlns="http://www.w3.org/2000/svg">
<path d="M77.9406 95.9998L65.4406 103C58.4406 103 43.0406 100.8 37.4406 91.9998C33.2258 85.3765 37.7158 79.3763 42.4688 74.6815C45.2611 71.9233 47.0469 68.2951 46.4554 64.4151C44.6122 52.3228 37.4102 29.7345 20.9407 21.4998C29.2527 23.8162 46.4993 40.0582 55.1382 56.8369C58.2392 62.8595 64.6804 66.7843 71.394 67.6876C79.1093 68.7257 82.8855 72.2724 83.9406 74.4998L85.4406 83.4998L77.9406 95.9998Z" fill="#A1E5FF"/>
<rect x="82.45" y="0.820068" width="4.96849" height="84.0883" rx="2.48424" transform="rotate(15.4171 82.45 0.820068)" fill="#4F5460"/>
<ellipse cx="62.1374" cy="83.0703" rx="6" ry="7.5" transform="rotate(15.4171 62.1374 83.0703)" fill="#4F5460"/>
<path d="M49.4788 84.9552C39.6736 83.388 32.5053 86.5073 33.097 90.1937L49.6935 105.254L66.2837 107.655L77.3396 100.816L87.4447 88.0534L87.3591 74.9008C74.7549 69.2593 66.4968 75.3458 60.2432 81.7606C57.4737 84.6015 53.3965 85.5814 49.4788 84.9552Z" fill="#77B255"/>
<path d="M74.293 56.5949C67.1016 60.8094 53.0762 61.1863 45.4667 58.6813C45.2509 58.6103 45.3305 58.3202 45.5574 58.3329C70.2182 59.7138 79.5786 50.3957 81.5001 44.8301C81.5683 44.6325 81.8755 44.638 81.9208 44.842C82.4415 47.186 82.6952 51.6706 74.293 56.5949Z" fill="#3A3D40"/>
<path d="M78.3743 43.2404C73.8278 56.786 53.0681 54.2666 41.5159 50.8305C41.2864 50.7623 41.3678 50.4373 41.6062 50.4586C63.6152 52.4274 74.493 46.848 77.9741 43.0219C78.1264 42.8545 78.4464 43.0259 78.3743 43.2404Z" fill="#3A3D40"/>
<path d="M35.5167 98.8014C18.5524 83.1879 29.7455 67.1038 37.8561 60.6418C38.0051 60.5231 38.2076 60.6826 38.1599 60.8672C28.9846 96.3809 51.4432 100.366 67.0083 97.1341C84.2983 91.2685 85.1369 79.3171 82.3638 70.9575C81.1184 67.2035 79.0233 63.61 79.1313 59.6563C79.2367 55.7987 80.5368 53.1067 81.6626 51.7018C81.796 51.5354 82.055 51.6909 82.0133 51.9C81.2011 55.9714 84.408 63.6891 87.3801 69.4691C88.9496 72.5214 90.3396 75.7391 90.4624 79.1691C90.9094 91.6562 83.9987 99.1858 80.032 101.565C72.3955 107.272 52.8014 114.71 35.5167 98.8014Z" fill="#3A3D40"/>
<path d="M48.8215 20.4177L45.5227 27.9998H43.7356L47.0403 20.8396H42.7981V19.4685H48.8215V20.4177ZM55.6536 24.4724C55.6536 25.6521 55.4094 26.5544 54.9211 27.1794C54.4329 27.8044 53.718 28.1169 52.7766 28.1169C51.8469 28.1169 51.136 27.8103 50.6438 27.197C50.1516 26.5837 49.8997 25.7048 49.8879 24.5603V22.99C49.8879 21.7986 50.134 20.8943 50.6262 20.2771C51.1223 19.6599 51.8352 19.3513 52.7649 19.3513C53.6946 19.3513 54.4055 19.658 54.8977 20.2712C55.3899 20.8806 55.6418 21.7576 55.6536 22.9021V24.4724ZM53.9602 22.7498C53.9602 22.0427 53.8625 21.5291 53.6672 21.2087C53.4758 20.8845 53.175 20.7224 52.7649 20.7224C52.3665 20.7224 52.0715 20.8767 51.8801 21.1853C51.6926 21.49 51.593 21.9685 51.5813 22.6208V24.6951C51.5813 25.3904 51.675 25.908 51.8625 26.2478C52.054 26.5837 52.3586 26.7517 52.7766 26.7517C53.1907 26.7517 53.4895 26.5896 53.6731 26.2654C53.8567 25.9412 53.9524 25.4451 53.9602 24.7771V22.7498ZM56.9133 21.4314C56.9133 20.8064 57.0989 20.3044 57.47 19.9255C57.845 19.5427 58.3352 19.3513 58.9407 19.3513C59.5461 19.3513 60.0364 19.5408 60.4114 19.9197C60.7864 20.2986 60.9739 20.8123 60.9739 21.4607V21.8826C60.9739 22.5037 60.7903 23.0056 60.4231 23.3884C60.0559 23.7673 59.5657 23.9568 58.9524 23.9568C58.3352 23.9568 57.8411 23.7654 57.47 23.3826C57.0989 22.9998 56.9133 22.49 56.9133 21.8533V21.4314ZM57.9387 21.8826C57.9387 22.2654 58.0286 22.5642 58.2083 22.7791C58.3918 22.9939 58.6399 23.1013 58.9524 23.1013C59.2571 23.1013 59.4973 22.9958 59.6731 22.7849C59.8528 22.574 59.9446 22.2791 59.9485 21.9001V21.4314C59.9485 21.0525 59.8567 20.7556 59.6731 20.5408C59.4934 20.3259 59.2493 20.2185 58.9407 20.2185C58.636 20.2185 58.3918 20.3259 58.2083 20.5408C58.0286 20.7517 57.9387 21.0564 57.9387 21.4548V21.8826ZM69.1653 25.158C69.0989 26.0759 68.759 26.7986 68.1458 27.3259C67.5364 27.8533 66.7317 28.1169 65.7317 28.1169C64.6379 28.1169 63.7766 27.7498 63.1477 27.0154C62.5227 26.2771 62.2102 25.2654 62.2102 23.9802V23.4587C62.2102 22.6384 62.3547 21.9158 62.6438 21.2908C62.9329 20.6658 63.345 20.1873 63.8801 19.8552C64.4192 19.5193 65.0442 19.3513 65.7551 19.3513C66.7395 19.3513 67.5325 19.615 68.134 20.1423C68.7356 20.6697 69.0833 21.4099 69.177 22.363H67.4192C67.3762 21.8123 67.2219 21.4138 66.9563 21.1677C66.6946 20.9177 66.2942 20.7927 65.7551 20.7927C65.1692 20.7927 64.7297 21.0037 64.4368 21.4255C64.1477 21.8435 63.9993 22.4939 63.9915 23.3767V24.0212C63.9915 24.9431 64.1301 25.6169 64.4075 26.0427C64.6887 26.4685 65.1301 26.6814 65.7317 26.6814C66.2747 26.6814 66.679 26.5583 66.9446 26.3123C67.2141 26.0623 67.3684 25.6775 67.4075 25.158H69.1653Z" fill="#3A3D40"/>
<rect x="36.4407" y="24.9998" width="3" height="1" fill="#3A3D40"/>
<rect x="36.4407" y="20.9998" width="3" height="1" fill="#3A3D40"/>
<rect x="37.4407" y="22.9998" width="3" height="1" transform="rotate(-90 37.4407 22.9998)" fill="#3A3D40"/>
</svg>
